# xmcd CD database file
#
# Track frame offsets:
#	150
#	29656
#	43349
#	59930
#	78572
#	99203
#	121221
#	145864
#	174069
#	189300
#	213606
#	237199
#	262291
#	285322
#	301790
#
# Disc length: 4332 seconds
#
# Revision: 2
# Processed by: cddbd v1.5.1PL0 Copyright (c) Steve Scherf et al.
# Submitted via: CDex 1.51
#
DISCID=d810ea0f
DTITLE=S.E.N.S.  - Natural - The Very Best of S.E.N.S. Cd 2 
DYEAR=2004
DGENRE=New Age
TTITLE0=Future
TTITLE1=I For You
TTITLE2=Peace
TTITLE3=Toro Alato
TTITLE4=Aurora
TTITLE5=Maria
TTITLE6=Something In The Air
TTITLE7=Asian Blue-Sea Where Swims The
TTITLE8=Feel Me
TTITLE9=Lunar Dream
TTITLE10=Requiem
TTITLE11=The God Of The Sea
TTITLE12=Like The Wind
TTITLE13=Love In Song
TTITLE14=Palace Memories
EXTD=YEAR: 2004
EXTT0=
EXTT1=
EXTT2=
EXTT3=
EXTT4=
EXTT5=
EXTT6=
EXTT7=
EXTT8=
EXTT9=
EXTT10=
EXTT11=
EXTT12=
EXTT13=
EXTT14=
PLAYORDER=
